<svg xmlns="http://www.w3.org/2000/svg" viewBox="0 0 512 512" width="512" height="512">
  <defs>
    <radialGradient id="tile" cx="50%" cy="34%" r="80%">
      <stop offset="0" stop-color="#17282c"/>
      <stop offset="1" stop-color="#0a1316"/>
    </radialGradient>
    <radialGradient id="ember" cx="50%" cy="100%" r="60%">
      <stop offset="0" stop-color="#d4823a" stop-opacity="0.5"/>
      <stop offset="0.65" stop-color="#c9772f" stop-opacity="0"/>
    </radialGradient>
  </defs>
  <rect width="512" height="512" rx="96" ry="96" fill="url(#tile)"/>
  <rect width="512" height="512" rx="96" ry="96" fill="url(#ember)"/>
  <g transform="translate(256,256) scale(1.72) translate(-140,-146)">
    <!-- shield -->
    <path d="M52,30 H228 V120 C228,186 190,236 140,262 C90,236 52,186 52,120 Z" fill="#223138"/>
    <path d="M66,43 H214 V117 C214,175 180,219 140,242 C100,219 66,175 66,117 Z" fill="none" stroke="#E4D8BE" stroke-width="3"/>
    <path d="M73,50 H207 V116 C207,169 176,210 140,231 C104,210 73,169 73,116 Z" fill="none" stroke="#E4D8BE" stroke-width="1.8" opacity="0.85"/>
    <!-- Latin cross -->
    <path d="M131,74 H149 V122 H181 V142 H149 V236 H131 V142 H99 V122 H131 Z" fill="#E4D8BE"/>
    <!-- crest tools (hammer · tin-snips · anvil) -->
    <g fill="#E4D8BE" stroke="#223138" stroke-width="3.2" stroke-linejoin="round" paint-order="stroke">
      <g transform="translate(106,112) rotate(48) scale(0.92)">
        <rect x="-32" y="-12" width="24" height="24" rx="4"/>
        <rect x="-9" y="-9" width="7" height="18" rx="2"/>
        <path d="M-3,-5.5 L54,-3 Q58,0 54,3 L-3,5.5 Z"/>
      </g>
      <g transform="translate(174,114) rotate(24) scale(0.92)">
        <path d="M-1.5,-4 L-7,-44 L-2.5,-47 L3,-5 Z"/>
        <path d="M1.5,-4 L7,-44 L2.5,-47 L-3,-5 Z"/>
        <circle cx="0" cy="0" r="4.5"/>
        <path d="M-2,3 L-13,38 Q-14.5,43 -9.5,44 L-0.5,6 Z"/>
        <path d="M2,3 L13,38 Q14.5,43 9.5,44 L0.5,6 Z"/>
      </g>
      <g transform="translate(140,200) scale(0.98)">
        <path d="M-30,-22 L24,-22 L26,-18 L48,-15 L27,-10 L24,-8 L15,-3 L17,10 L31,19 L-31,19 L-17,10 L-15,-3 L-24,-8 L-30,-9 Z"/>
      </g>
    </g>
  </g>
</svg>
